<?xml version="1.0" encoding="UTF-8" standalone="no"?>
<!DOCTYPE svg PUBLIC "-//W3C//DTD SVG 1.1//EN" "http://www.w3.org/Graphics/SVG/1.1/DTD/svg11.dtd">
<svg version="1.1" xmlns="http://www.w3.org/2000/svg" xmlns:xlink="http://www.w3.org/1999/xlink" preserveAspectRatio="xMidYMid meet" viewBox="0 0 640 640" width="640" height="640"><defs><path d="M584.21 443.33L584.61 443.37L584.99 443.43L585.38 443.51L585.75 443.6L586.12 443.7L586.49 443.83L586.85 443.96L587.2 444.11L587.55 444.28L587.89 444.46L588.22 444.65L588.54 444.86L588.85 445.08L589.16 445.31L589.46 445.55L589.75 445.81L590.02 446.08L590.29 446.36L590.55 446.64L590.8 446.94L591.04 447.25L591.27 447.57L591.48 447.9L591.69 448.24L591.88 448.59L592.06 448.94L592.22 449.31L592.38 449.68L592.52 450.06L592.65 450.44L592.76 450.84L592.86 451.24L592.95 451.64L593.02 452.05L593.07 452.47L593.11 452.89L593.14 453.32L593.14 453.75L593.14 547.9L602.87 547.9L603.27 547.91L603.67 547.94L604.06 547.98L604.45 548.04L604.83 548.12L605.21 548.21L605.58 548.31L605.94 548.44L606.3 548.57L606.65 548.73L607 548.89L607.34 549.07L607.67 549.26L607.99 549.47L608.31 549.69L608.61 549.92L608.91 550.17L609.2 550.42L609.48 550.69L609.75 550.97L610 551.26L610.25 551.56L610.49 551.87L610.72 552.19L610.93 552.52L611.14 552.85L611.33 553.2L611.51 553.56L611.68 553.92L611.83 554.29L611.97 554.67L612.1 555.06L612.21 555.45L612.31 555.85L612.4 556.26L612.47 556.67L612.52 557.08L612.56 557.51L612.59 557.93L612.59 558.36L612.59 600.21L612.59 600.64L612.56 601.07L612.52 601.49L612.47 601.91L612.4 602.32L612.31 602.72L612.21 603.12L612.1 603.52L611.97 603.9L611.83 604.28L611.68 604.65L611.51 605.02L611.33 605.37L611.14 605.72L610.93 606.06L610.72 606.39L610.49 606.71L610.25 607.02L610 607.32L609.75 607.61L609.48 607.89L609.2 608.15L608.91 608.41L608.61 608.65L608.31 608.88L607.99 609.1L607.67 609.31L607.34 609.5L607 609.68L606.65 609.85L606.3 610L605.94 610.14L605.58 610.26L605.21 610.37L604.83 610.46L604.45 610.53L604.06 610.59L603.67 610.64L603.27 610.66L602.87 610.67L359.76 610.67L359.35 610.66L358.96 610.64L358.57 610.59L358.18 610.53L357.8 610.46L357.42 610.37L357.05 610.26L356.68 610.14L356.32 610L355.97 609.85L355.62 609.68L355.29 609.5L354.96 609.31L354.63 609.1L354.32 608.88L354.01 608.65L353.72 608.41L353.43 608.15L353.15 607.89L352.88 607.61L352.62 607.32L352.37 607.02L352.13 606.71L351.91 606.39L351.69 606.06L351.49 605.72L351.3 605.37L351.12 605.02L350.95 604.65L350.8 604.28L350.65 603.9L350.53 603.52L350.41 603.12L350.31 602.72L350.23 602.32L350.16 601.91L350.1 601.49L350.06 601.07L350.04 600.64L350.01 598.92L349.93 597.64L349.81 596.37L349.65 595.12L349.44 593.88L349.18 592.67L348.88 591.47L348.54 590.29L348.16 589.13L347.74 587.99L347.28 586.88L346.77 585.79L346.24 584.72L345.66 583.68L345.05 582.66L344.4 581.67L343.72 580.72L343.01 579.79L342.26 578.89L341.49 578.02L340.68 577.18L339.84 576.38L338.98 575.61L338.09 574.88L337.17 574.19L336.22 573.53L335.26 572.91L334.26 572.33L333.25 571.79L332.21 571.29L331.16 570.84L330.08 570.43L328.98 570.06L327.87 569.74L326.74 569.46L325.59 569.24L324.43 569.06L323.25 568.93L322.06 568.85L320.86 568.83L319.65 568.85L318.46 568.93L317.29 569.06L316.13 569.24L314.98 569.46L313.85 569.74L312.73 570.06L311.64 570.43L310.56 570.84L309.5 571.29L308.47 571.79L307.45 572.33L306.46 572.91L305.49 573.53L304.55 574.19L303.63 574.88L302.74 575.61L301.87 576.38L301.04 577.18L300.23 578.02L299.45 578.89L298.71 579.79L297.99 580.72L297.31 581.67L296.67 582.66L296.05 583.68L295.48 584.72L294.94 585.79L294.44 586.88L293.98 587.99L293.55 589.13L293.17 590.29L292.83 591.47L292.53 592.67L292.28 593.88L292.07 595.12L291.9 596.37L291.78 597.64L291.71 598.92L291.68 600.64L291.65 601.07L291.61 601.49L291.56 601.91L291.49 602.32L291.4 602.72L291.3 603.12L291.19 603.52L291.06 603.9L290.92 604.28L290.77 604.65L290.6 605.02L290.42 605.37L290.23 605.72L290.02 606.06L289.81 606.39L289.58 606.71L289.34 607.02L289.09 607.32L288.84 607.61L288.57 607.89L288.29 608.15L288 608.41L287.7 608.65L287.4 608.88L287.08 609.1L286.76 609.31L286.43 609.5L286.09 609.68L285.74 609.85L285.39 610L285.03 610.14L284.67 610.26L284.3 610.37L283.92 610.46L283.54 610.53L283.15 610.59L282.76 610.64L282.36 610.66L281.96 610.67L38.85 610.67L38.44 610.66L38.05 610.64L37.66 610.59L37.27 610.53L36.89 610.46L36.51 610.37L36.14 610.26L35.77 610.14L35.41 610L35.06 609.85L34.71 609.68L34.38 609.5L34.05 609.31L33.72 609.1L33.41 608.88L33.1 608.65L32.8 608.41L32.52 608.15L32.24 607.89L31.97 607.61L31.71 607.32L31.46 607.02L31.22 606.71L31 606.39L30.78 606.06L30.58 605.72L30.39 605.37L30.21 605.02L30.04 604.65L29.88 604.28L29.74 603.9L29.62 603.52L29.5 603.12L29.4 602.72L29.32 602.32L29.25 601.91L29.19 601.49L29.15 601.07L29.13 600.64L29.12 600.21L29.12 558.36L29.13 557.93L29.15 557.51L29.19 557.08L29.25 556.67L29.32 556.26L29.4 555.85L29.5 555.45L29.62 555.06L29.74 554.67L29.88 554.29L30.04 553.92L30.21 553.56L30.39 553.2L30.58 552.85L30.78 552.52L31 552.19L31.22 551.87L31.46 551.56L31.71 551.26L31.97 550.97L32.24 550.69L32.52 550.42L32.8 550.17L33.1 549.92L33.41 549.69L33.72 549.47L34.05 549.26L34.38 549.07L34.71 548.89L35.06 548.73L35.41 548.57L35.77 548.44L36.14 548.31L36.51 548.21L36.89 548.12L37.27 548.04L37.66 547.98L38.05 547.94L38.44 547.91L38.85 547.9L48.57 547.9L48.57 453.75L48.57 453.73L48.57 453.7L48.57 453.68L48.57 453.65L48.57 453.63L48.57 453.6L48.57 453.58L48.57 453.55L48.57 453.53L48.57 453.5L48.57 453.48L48.57 453.45L48.57 453.43L48.58 453.4L48.58 453.38L48.58 453.35L48.58 453.33L48.58 453.31L48.58 453.28L48.58 453.26L48.58 453.23L48.58 453.21L48.58 453.18L48.59 453.16L48.59 453.13L48.59 453.11L48.59 453.08L48.59 453.06L48.59 453.03L48.59 453.01L48.6 452.98L48.6 452.96L48.6 452.93L48.6 452.91L48.6 452.89L48.61 452.86L48.61 452.84L48.61 452.81L48.61 452.79L48.61 452.76L48.66 452.33L48.72 451.91L48.8 451.5L48.89 451.09L49 450.68L49.12 450.29L49.25 449.9L49.4 449.52L49.56 449.15L49.73 448.79L49.92 448.43L50.12 448.09L50.33 447.75L50.55 447.43L50.78 447.11L51.03 446.8L51.28 446.51L51.55 446.22L51.82 445.95L52.1 445.69L52.39 445.44L52.7 445.2L53.01 444.98L53.32 444.76L53.65 444.56L53.98 444.38L54.32 444.21L54.67 444.05L55.02 443.9L55.38 443.77L55.74 443.66L56.11 443.56L56.49 443.47L56.86 443.41L57.25 443.35L57.64 443.32L58.03 443.3L58.42 443.29L58.82 443.31L59.22 443.34L72.5 444.76L85.34 446.23L97.75 447.76L109.74 449.34L121.31 450.96L132.46 452.63L143.21 454.34L153.56 456.08L163.52 457.86L173.09 459.66L182.29 461.48L191.11 463.33L199.57 465.19L207.67 467.06L215.41 468.93L222.81 470.81L229.88 472.69L236.61 474.57L243.01 476.43L249.1 478.29L254.87 480.12L260.34 481.94L265.51 483.73L270.39 485.49L274.98 487.22L279.29 488.91L283.33 490.56L287.11 492.17L290.63 493.73L293.89 495.23L296.91 496.68L299.69 498.07L302.24 499.39L304.56 500.65L306.67 501.83L308.56 502.93L310.25 503.96L311.74 504.9L313.04 505.75L314.15 506.51L314.32 506.5L314.48 506.48L314.65 506.47L314.82 506.46L314.98 506.45L315.15 506.43L315.31 506.42L315.48 506.4L315.65 506.39L315.81 506.38L315.97 506.36L316.14 506.35L316.3 506.33L316.47 506.32L316.63 506.3L316.8 506.29L316.96 506.27L317.13 506.26L317.29 506.24L317.45 506.23L317.62 506.21L317.79 506.2L317.95 506.19L318.12 506.17L318.28 506.16L318.45 506.15L318.62 506.14L318.79 506.13L318.95 506.12L319.12 506.11L319.29 506.1L319.46 506.09L319.64 506.08L319.81 506.08L319.98 506.07L320.15 506.07L320.33 506.06L320.5 506.06L320.68 506.06L320.86 506.06L321.03 506.06L321.21 506.06L321.39 506.06L321.56 506.07L321.73 506.07L321.91 506.08L322.08 506.08L322.25 506.09L322.42 506.1L322.59 506.11L322.76 506.12L322.93 506.13L323.1 506.14L323.26 506.15L323.43 506.16L323.6 506.17L323.76 506.19L323.93 506.2L324.09 506.21L324.26 506.23L324.42 506.24L324.59 506.26L324.75 506.27L324.92 506.29L325.08 506.3L325.25 506.32L325.41 506.33L325.58 506.35L325.74 506.36L325.9 506.38L326.07 506.39L326.23 506.4L326.4 506.42L326.57 506.43L326.73 506.45L326.9 506.46L327.06 506.47L327.23 506.48L327.4 506.5L327.57 506.51L328.68 505.75L329.97 504.9L331.46 503.96L333.14 502.93L335.04 501.83L337.14 500.65L339.46 499.39L342.01 498.07L344.79 496.68L347.81 495.23L351.07 493.73L354.59 492.17L358.37 490.56L362.41 488.91L366.72 487.22L371.31 485.49L376.19 483.73L381.36 481.94L386.83 480.12L392.6 478.29L398.69 476.43L405.09 474.57L411.82 472.69L418.88 470.81L426.29 468.93L434.03 467.06L442.13 465.19L450.59 463.33L459.41 461.48L468.61 459.66L478.18 457.86L488.14 456.08L498.49 454.34L509.24 452.63L520.4 450.96L531.97 449.34L543.96 447.76L556.37 446.23L569.21 444.76L582.5 443.34L582.52 443.34L582.54 443.34L582.57 443.34L582.59 443.33L582.61 443.33L582.63 443.33L582.66 443.33L582.68 443.32L582.7 443.32L582.73 443.32L582.75 443.32L582.77 443.32L582.79 443.32L582.82 443.31L582.84 443.31L582.86 443.31L582.89 443.31L582.91 443.31L582.93 443.31L582.96 443.31L582.98 443.31L583 443.3L583.02 443.3L583.05 443.3L583.07 443.3L583.09 443.3L583.12 443.3L583.14 443.3L583.16 443.3L583.19 443.3L583.21 443.3L583.23 443.3L583.25 443.3L583.28 443.3L583.3 443.3L583.32 443.3L583.35 443.29L583.37 443.29L583.39 443.29L583.42 443.29L583.82 443.3L584.21 443.33ZM534.8 589.75L593.14 589.75L593.14 568.83L534.8 568.83L534.8 589.75ZM48.57 589.75L106.92 589.75L106.92 568.83L48.57 568.83L48.57 589.75ZM316.68 527.07L314.63 527.19L312.62 527.34L310.64 527.55L308.69 527.8L306.78 528.09L304.89 528.43L303.04 528.82L301.21 529.25L299.42 529.73L297.66 530.25L295.94 530.81L294.24 531.43L292.58 532.08L290.94 532.78L289.34 533.53L287.78 534.32L286.24 535.16L284.74 536.04L283.27 536.96L281.83 537.94L280.42 538.95L279.04 540.01L277.7 541.12L276.39 542.27L275.11 543.46L273.87 544.7L272.66 545.98L271.48 547.31L270.33 548.69L269.22 550.1L268.14 551.57L267.09 553.07L266.07 554.62L265.09 556.22L264.14 557.86L263.22 559.54L262.34 561.27L261.49 563.04L261.36 563.3L261.23 563.56L261.09 563.82L260.94 564.06L260.79 564.31L260.64 564.55L260.47 564.78L260.3 565L260.13 565.23L259.95 565.44L259.77 565.65L259.58 565.85L259.38 566.05L259.19 566.24L258.98 566.43L258.78 566.61L258.56 566.78L258.35 566.95L258.13 567.11L257.9 567.26L257.67 567.41L257.44 567.55L257.21 567.69L256.97 567.81L256.72 567.93L256.48 568.04L256.23 568.15L255.98 568.25L255.73 568.34L255.47 568.42L255.21 568.5L254.95 568.57L254.68 568.63L254.42 568.68L254.15 568.72L253.88 568.76L253.61 568.79L253.34 568.81L253.06 568.82L252.79 568.83L126.37 568.83L126.37 589.75L273.21 589.75L273.58 587.94L274.02 586.15L274.51 584.39L275.05 582.66L275.64 580.96L276.29 579.29L276.98 577.66L277.73 576.05L278.52 574.48L279.37 572.95L280.25 571.45L281.18 569.98L282.16 568.56L283.18 567.17L284.24 565.82L285.34 564.51L286.47 563.25L287.65 562.02L288.86 560.84L290.11 559.71L291.4 558.62L292.71 557.58L294.06 556.58L295.44 555.63L296.86 554.74L298.3 553.89L299.76 553.1L301.26 552.35L302.78 551.66L304.32 551.03L305.89 550.45L307.48 549.93L309.09 549.46L310.72 549.06L312.37 548.71L314.04 548.42L315.72 548.2L317.42 548.04L319.13 547.94L320.86 547.9L322.58 547.94L324.3 548.04L326 548.2L327.68 548.42L329.35 548.71L331 549.06L332.63 549.46L334.24 549.93L335.83 550.45L337.39 551.03L338.94 551.66L340.46 552.35L341.95 553.1L343.42 553.89L344.86 554.74L346.27 555.63L347.65 556.58L349 557.58L350.32 558.62L351.6 559.71L352.85 560.84L354.06 562.02L355.24 563.25L356.38 564.51L357.48 565.82L358.54 567.17L359.56 568.56L360.53 569.98L361.46 571.45L362.35 572.95L363.19 574.48L363.98 576.05L364.73 577.66L365.43 579.29L366.07 580.96L366.67 582.66L367.21 584.39L367.7 586.15L368.13 587.94L368.51 589.75L515.35 589.75L515.35 568.83L388.93 568.83L388.65 568.82L388.38 568.81L388.1 568.79L387.83 568.77L387.56 568.73L387.29 568.69L387.02 568.63L386.76 568.57L386.49 568.51L386.23 568.43L385.97 568.35L385.72 568.26L385.47 568.16L385.22 568.06L384.97 567.94L384.73 567.83L384.49 567.7L384.25 567.57L384.01 567.43L383.79 567.28L383.56 567.12L383.34 566.96L383.12 566.8L382.91 566.62L382.7 566.44L382.49 566.26L382.29 566.06L382.1 565.87L381.91 565.66L381.72 565.45L381.54 565.23L381.37 565.01L381.2 564.79L381.03 564.55L380.88 564.31L380.72 564.07L380.58 563.82L380.44 563.57L380.3 563.31L380.18 563.04L379.33 561.27L378.45 559.54L377.54 557.86L376.59 556.22L375.61 554.62L374.6 553.07L373.55 551.57L372.47 550.1L371.36 548.69L370.22 547.31L369.04 545.98L367.83 544.7L366.59 543.46L365.31 542.27L364 541.12L362.66 540.01L361.29 538.95L359.88 537.94L358.44 536.96L356.97 536.04L355.47 535.16L353.93 534.32L352.37 533.53L350.77 532.78L349.14 532.08L347.47 531.43L345.78 530.81L344.05 530.25L342.29 529.73L340.5 529.25L338.68 528.82L336.82 528.43L334.94 528.09L333.02 527.8L331.07 527.55L329.09 527.34L327.08 527.19L325.04 527.07L322.96 527L320.86 526.98L318.75 527L316.68 527.07ZM555.49 467.35L546.73 468.44L538.19 469.55L529.87 470.69L521.77 471.84L513.88 473.02L506.21 474.21L498.74 475.42L491.49 476.65L484.44 477.89L477.59 479.14L470.94 480.4L464.49 481.68L458.24 482.96L452.17 484.25L446.3 485.54L440.62 486.84L435.11 488.14L429.79 489.43L424.65 490.73L419.69 492.03L414.9 493.32L410.28 494.61L405.84 495.89L401.56 497.16L397.44 498.43L393.48 499.68L389.69 500.92L386.05 502.14L382.56 503.35L379.22 504.54L376.04 505.72L373 506.87L370.1 508.01L367.34 509.12L364.72 510.2L362.24 511.26L359.89 512.29L357.67 513.3L358.84 513.82L359.99 514.36L361.13 514.92L362.27 515.49L363.39 516.09L364.5 516.71L365.61 517.35L366.7 518L367.78 518.68L368.84 519.37L369.9 520.08L370.95 520.81L371.98 521.56L373 522.33L374.01 523.11L375.01 523.91L375.99 524.73L376.96 525.56L377.92 526.41L378.87 527.28L379.8 528.17L380.72 529.07L381.62 529.99L382.51 530.92L383.39 531.87L384.25 532.84L385.1 533.82L385.93 534.82L386.75 535.83L387.55 536.85L388.34 537.9L389.11 538.95L389.87 540.02L390.61 541.11L391.33 542.2L392.04 543.32L392.73 544.44L393.41 545.58L394.06 546.74L394.71 547.9L573.7 547.9L573.7 526.98L457 526.98L457 506.06L573.7 506.06L573.7 465.26L564.48 466.29L555.49 467.35ZM184.71 506.06L184.71 526.98L68.02 526.98L68.02 547.9L247.01 547.9L247.65 546.74L248.3 545.59L248.97 544.46L249.66 543.34L250.36 542.23L251.08 541.14L251.82 540.06L252.57 538.99L253.33 537.94L254.11 536.9L254.91 535.88L255.72 534.87L256.55 533.88L257.39 532.9L258.25 531.94L259.12 530.99L260 530.06L260.9 529.15L261.81 528.25L262.74 527.36L263.68 526.5L264.63 525.65L265.59 524.81L266.57 524L267.56 523.2L268.56 522.42L269.58 521.65L270.61 520.9L271.64 520.18L272.69 519.46L273.75 518.77L274.83 518.1L275.91 517.44L277 516.8L278.11 516.18L279.23 515.58L280.35 515L281.49 514.44L282.63 513.9L283.79 513.38L281.54 512.37L279.16 511.33L276.65 510.26L274 509.17L271.21 508.05L268.28 506.91L265.21 505.75L262 504.57L258.64 503.37L255.12 502.15L251.46 500.92L247.64 499.67L243.66 498.41L239.52 497.14L235.23 495.87L230.76 494.58L226.13 493.28L221.33 491.99L216.36 490.69L211.21 489.38L205.89 488.08L200.39 486.78L194.71 485.48L188.84 484.18L182.79 482.89L176.55 481.61L170.12 480.34L163.49 479.07L156.67 477.82L149.65 476.58L142.43 475.36L135.01 474.15L127.38 472.96L119.54 471.79L111.49 470.64L103.23 469.51L94.76 468.41L86.07 467.33L77.15 466.28L68.02 465.26L68.02 506.06L184.71 506.06Z" id="bcHtN6tLj"></path><path d="M425.77 530.99L446.85 530.99L446.85 551.91L425.77 551.91L425.77 530.99Z" id="a45B5ymxRA"></path><path d="M248.43 47.83L253.1 48.22L257.76 48.76L262.4 49.46L267.02 50.32L271.61 51.33L276.18 52.51L280.72 53.83L285.22 55.32L289.67 56.96L294.09 58.76L298.45 60.72L302.76 62.84L307.01 65.11L311.2 67.54L315.32 70.13L319.38 72.88L323.36 75.79L327.34 72.88L331.39 70.13L335.52 67.55L339.71 65.12L343.96 62.84L348.27 60.73L352.63 58.77L357.04 56.97L361.5 55.33L366 53.85L370.53 52.52L375.1 51.35L379.7 50.34L384.32 49.48L388.96 48.78L393.61 48.24L398.28 47.85L402.95 47.62L407.63 47.54L412.31 47.62L416.98 47.86L421.64 48.25L426.29 48.79L430.92 49.5L435.52 50.35L440.11 51.37L444.66 52.53L449.17 53.85L453.65 55.33L458.08 56.96L462.47 58.75L466.8 60.68L471.08 62.78L475.3 65.02L479.46 67.43L483.54 69.98L487.56 72.69L491.49 75.55L495.35 78.56L499.12 81.73L500.88 83.27L502.61 84.85L504.29 86.46L505.94 88.11L507.55 89.78L509.12 91.49L510.65 93.22L512.15 94.99L513.6 96.78L515.02 98.6L516.39 100.45L517.72 102.32L519.02 104.22L520.27 106.14L521.48 108.09L522.64 110.06L523.77 112.06L524.85 114.08L525.89 116.12L526.89 118.17L527.84 120.25L528.75 122.35L529.62 124.47L530.44 126.61L531.22 128.76L531.95 130.93L532.64 133.12L533.28 135.32L533.87 137.54L534.42 139.77L534.92 142.01L535.38 144.27L535.78 146.54L536.14 148.82L536.45 151.11L536.72 153.4L536.93 155.71L537.1 158.03L537.21 160.36L537.28 162.69L537.21 165.02L537.1 167.35L536.93 169.66L536.72 171.97L536.46 174.27L536.14 176.56L535.79 178.84L535.38 181.11L534.92 183.37L534.42 185.61L533.87 187.84L533.28 190.06L532.64 192.26L531.95 194.45L531.22 196.62L530.44 198.77L529.62 200.91L528.76 203.02L527.85 205.12L526.89 207.2L525.9 209.26L524.86 211.3L523.77 213.32L522.65 215.31L521.48 217.29L520.27 219.24L519.02 221.16L517.72 223.06L516.39 224.93L515.02 226.78L513.6 228.6L512.15 230.39L510.66 232.16L509.12 233.89L507.55 235.6L505.94 237.27L504.29 238.91L502.61 240.52L500.88 242.1L499.12 243.65L330.57 400.46L330.26 400.74L329.94 401L329.62 401.25L329.29 401.48L328.95 401.7L328.61 401.91L328.26 402.1L327.9 402.28L327.54 402.44L327.17 402.59L326.8 402.72L326.43 402.84L326.05 402.95L325.67 403.04L325.29 403.12L324.91 403.18L324.52 403.23L324.13 403.27L323.75 403.29L323.36 403.29L322.97 403.29L322.58 403.27L322.19 403.23L321.81 403.18L321.42 403.12L321.04 403.04L320.66 402.95L320.28 402.84L319.91 402.72L319.54 402.59L319.18 402.44L318.81 402.28L318.46 402.1L318.11 401.91L317.76 401.7L317.43 401.48L317.1 401.25L316.77 401L316.46 400.74L316.15 400.46L147.49 243.54L145.73 242L144.01 240.42L142.33 238.81L140.68 237.17L139.08 235.5L137.51 233.79L135.98 232.06L134.49 230.3L133.04 228.51L131.63 226.69L130.26 224.84L128.93 222.97L127.64 221.08L126.39 219.15L125.19 217.21L124.02 215.24L122.9 213.25L121.82 211.23L120.78 209.19L119.79 207.14L118.84 205.06L117.93 202.96L117.06 200.85L116.25 198.71L115.47 196.56L114.74 194.4L114.06 192.21L113.42 190.01L112.83 187.8L112.28 185.57L111.78 183.33L111.33 181.08L110.92 178.82L110.56 176.54L110.25 174.25L109.99 171.96L109.78 169.65L109.61 167.34L109.5 165.02L109.43 162.69L109.5 160.36L109.62 158.03L109.78 155.71L110 153.4L110.26 151.11L110.57 148.82L110.93 146.54L111.34 144.27L111.79 142.01L112.29 139.77L112.84 137.54L113.44 135.32L114.08 133.12L114.76 130.93L115.5 128.76L116.27 126.61L117.09 124.47L117.96 122.35L118.87 120.25L119.82 118.17L120.82 116.12L121.86 114.08L122.95 112.06L124.07 110.06L125.24 108.09L126.45 106.14L127.7 104.22L128.99 102.32L130.33 100.45L131.7 98.6L133.11 96.78L134.57 94.99L136.06 93.22L137.59 91.49L139.16 89.78L140.77 88.11L142.42 86.46L144.11 84.85L145.83 83.27L147.59 81.73L151.36 78.56L155.22 75.54L159.16 72.68L163.17 69.97L167.26 67.42L171.41 65.02L175.63 62.77L179.91 60.67L184.24 58.73L188.63 56.95L193.06 55.32L197.54 53.84L202.06 52.52L206.61 51.35L211.19 50.34L215.8 49.48L220.43 48.78L225.07 48.23L229.73 47.84L234.41 47.6L239.08 47.52L243.76 47.6L248.43 47.83ZM395.3 68.96L391.19 69.46L387.1 70.11L383.02 70.91L378.97 71.84L374.95 72.93L370.97 74.16L367.02 75.53L363.11 77.04L359.25 78.7L355.43 80.51L351.67 82.46L347.97 84.55L344.33 86.79L340.75 89.17L337.25 91.7L333.82 94.37L330.46 97.19L330.16 97.46L329.84 97.71L329.52 97.95L329.19 98.17L328.86 98.39L328.52 98.58L328.18 98.77L327.83 98.94L327.47 99.1L327.11 99.24L326.75 99.37L326.38 99.49L326.01 99.59L325.63 99.68L325.26 99.75L324.88 99.81L324.5 99.86L324.12 99.9L323.74 99.92L323.36 99.92L322.98 99.92L322.59 99.9L322.21 99.86L321.83 99.81L321.46 99.75L321.08 99.68L320.71 99.59L320.34 99.49L319.97 99.37L319.6 99.24L319.24 99.1L318.89 98.94L318.54 98.77L318.19 98.58L317.85 98.39L317.52 98.17L317.19 97.95L316.87 97.71L316.56 97.46L316.25 97.19L312.9 94.37L309.47 91.7L305.96 89.17L302.39 86.79L298.75 84.55L295.04 82.46L291.28 80.51L287.47 78.7L283.61 77.04L279.7 75.53L275.75 74.16L271.76 72.93L267.74 71.84L263.69 70.91L259.62 70.11L255.53 69.46L251.42 68.96L247.29 68.6L243.16 68.38L239.03 68.31L234.89 68.38L230.76 68.6L226.64 68.96L222.53 69.46L218.44 70.11L214.36 70.91L210.31 71.84L206.29 72.93L202.31 74.16L198.36 75.53L194.45 77.04L190.59 78.7L186.77 80.51L183.01 82.46L179.31 84.55L175.67 86.79L172.09 89.17L168.59 91.7L165.16 94.37L161.8 97.19L160.37 98.44L158.96 99.71L157.59 101.01L156.25 102.34L154.93 103.69L153.65 105.06L152.4 106.46L151.18 107.89L150 109.34L148.84 110.81L147.72 112.3L146.63 113.81L145.57 115.35L144.55 116.9L143.56 118.48L142.61 120.07L141.69 121.68L140.8 123.32L139.95 124.97L139.13 126.63L138.35 128.31L137.6 130.01L136.89 131.73L136.21 133.46L135.57 135.2L134.97 136.96L134.41 138.73L133.88 140.51L133.39 142.31L132.93 144.11L132.52 145.93L132.14 147.76L131.8 149.6L131.5 151.44L131.23 153.3L131.01 155.16L130.83 157.03L130.68 158.91L130.58 160.8L130.52 162.69L130.58 164.58L130.68 166.46L130.83 168.34L131.01 170.22L131.23 172.08L131.5 173.93L131.8 175.78L132.14 177.62L132.52 179.45L132.93 181.27L133.39 183.07L133.88 184.87L134.41 186.65L134.97 188.42L135.57 190.18L136.21 191.92L136.89 193.65L137.6 195.36L138.35 197.06L139.13 198.75L139.95 200.41L140.8 202.06L141.69 203.69L142.61 205.31L143.56 206.9L144.55 208.48L145.57 210.03L146.63 211.57L147.72 213.08L148.84 214.57L150 216.04L151.18 217.49L152.4 218.91L153.65 220.31L154.93 221.69L156.25 223.04L157.59 224.37L158.96 225.67L160.37 226.94L161.8 228.19L323.36 378.5L484.81 228.29L486.24 227.04L487.65 225.77L489.03 224.47L490.38 223.14L491.69 221.79L492.98 220.41L494.23 219.01L495.45 217.58L496.64 216.13L497.8 214.66L498.93 213.16L500.02 211.65L501.08 210.11L502.1 208.55L503.1 206.98L504.05 205.38L504.98 203.76L505.87 202.13L506.72 200.48L507.54 198.81L508.33 197.12L509.08 195.42L509.79 193.7L510.47 191.97L511.11 190.23L511.72 188.47L512.28 186.69L512.81 184.91L513.31 183.11L513.76 181.3L514.18 179.48L514.56 177.65L514.9 175.81L515.21 173.96L515.47 172.1L515.7 170.23L515.88 168.35L516.03 166.47L516.13 164.58L516.2 162.69L516.13 160.8L516.03 158.91L515.89 157.03L515.7 155.16L515.48 153.3L515.22 151.44L514.92 149.6L514.58 147.76L514.2 145.93L513.78 144.11L513.33 142.31L512.84 140.51L512.31 138.73L511.74 136.96L511.14 135.2L510.5 133.46L509.83 131.73L509.11 130.01L508.37 128.31L507.59 126.63L506.77 124.97L505.92 123.32L505.03 121.68L504.11 120.07L503.15 118.48L502.16 116.9L501.14 115.35L500.08 113.81L499 112.3L497.87 110.81L496.72 109.34L495.53 107.89L494.31 106.46L493.06 105.06L491.78 103.69L490.47 102.34L489.13 101.01L487.75 99.71L486.35 98.44L484.91 97.19L481.56 94.37L478.13 91.7L474.62 89.17L471.05 86.79L467.41 84.55L463.7 82.46L459.94 80.51L456.13 78.7L452.26 77.04L448.36 75.53L444.41 74.16L440.42 72.93L436.4 71.84L432.35 70.91L428.28 70.11L424.19 69.46L420.07 68.96L415.95 68.6L411.82 68.38L407.69 68.31L403.55 68.38L399.42 68.6L395.3 68.96Z" id="cnG8FRjr7"></path><path d="M313.18 377L450.25 251.51L464.54 266.88L327.46 392.37L313.18 377Z" id="e1V8pZcTPE"></path></defs><g><g><g><use xlink:href="#bcHtN6tLj" opacity="1" fill="#df6041" fill-opacity="1"></use><g><use xlink:href="#bcHtN6tLj" opacity="1" fill-opacity="0" stroke="#df6041" stroke-width="61" stroke-opacity="1"></use></g></g><g><use xlink:href="#a45B5ymxRA" opacity="1" fill="#df6041" fill-opacity="1"></use><g><use xlink:href="#a45B5ymxRA" opacity="1" fill-opacity="0" stroke="#000000" stroke-width="1" stroke-opacity="0"></use></g></g><g><use xlink:href="#cnG8FRjr7" opacity="1" fill="#df6041" fill-opacity="1"></use><g><use xlink:href="#cnG8FRjr7" opacity="1" fill-opacity="0" stroke="#df6041" stroke-width="79" stroke-opacity="1"></use></g></g><g><use xlink:href="#e1V8pZcTPE" opacity="1" fill="#df6041" fill-opacity="1"></use><g><use xlink:href="#e1V8pZcTPE" opacity="1" fill-opacity="0" stroke="#000000" stroke-width="1" stroke-opacity="0"></use></g></g></g></g></svg>