<svg height="512" viewBox="0 0 64 64" width="512" xmlns="http://www.w3.org/2000/svg"><path d="m61 56h-1v-9a1 1 0 0 0 -1.095-.995c-18.517 1.763-24.818 5.132-26.215 6.038-.231-.014-.446-.043-.69-.043s-.459.029-.69.043c-1.4-.906-7.7-4.275-26.215-6.038a1 1 0 0 0 -1.095.995v9h-1a1 1 0 0 0 -1 1v4a1 1 0 0 0 1 1h25a1 1 0 0 0 1-1 3 3 0 0 1 6 0 1 1 0 0 0 1 1h25a1 1 0 0 0 1-1v-4a1 1 0 0 0 -1-1zm-3-7.9v3.9h-12v2h12v2h-18.406a7.783 7.783 0 0 0 -3.808-3.308c2.953-1.26 9.419-3.292 22.214-4.592zm-52 5.9h12v-2h-12v-3.9c12.678 1.285 19.193 3.331 22.188 4.6a7.781 7.781 0 0 0 -3.782 3.3h-18.406zm-2 6v-2h6v2zm28-4a5.008 5.008 0 0 0 -4.9 4h-15.1v-2h13a1 1 0 0 0 .895-.553c1.143-2.287 3.197-3.447 6.105-3.447s4.962 1.16 6.1 3.447a1 1 0 0 0 .9.553h13v2h-15.1a5.008 5.008 0 0 0 -4.9-4zm28 4h-6v-2h6z"/><path d="m42 52h2v2h-2z"/><path d="m32 12.693a13.166 13.166 0 0 0 -16.674.568 10.482 10.482 0 0 0 -3.62 7.739 10.47 10.47 0 0 0 3.61 7.729l16 15a1 1 0 0 0 1.368 0l15.99-14.99a10.479 10.479 0 0 0 3.62-7.739 10.482 10.482 0 0 0 -3.62-7.739 13.172 13.172 0 0 0 -16.674-.568zm18.294 8.307a8.517 8.517 0 0 1 -2.978 6.271l-15.316 14.358-15.326-14.368a8.5 8.5 0 0 1 -2.968-6.261 8.5 8.5 0 0 1 2.968-6.261 11.1 11.1 0 0 1 14.652 0 1 1 0 0 0 1.348 0 11.1 11.1 0 0 1 14.652 0 8.5 8.5 0 0 1 2.968 6.261z"/><path d="m29.654 31h17.692v1.999h-17.692z" transform="matrix(.735 -.678 .678 .735 -11.495 34.6)"/><path d="m46 25 .707.707c1.628-1.628 3.724-5.69 0-9.414l-1.414 1.414c3.175 3.176.332 6.249 0 6.589z"/><path d="m48.326 33.261a4.542 4.542 0 0 0 .049 6.52l5 4a1 1 0 0 0 1.25 0l5.049-4.042a4.549 4.549 0 0 0 0-6.478 4.828 4.828 0 0 0 -5.674-.505 4.828 4.828 0 0 0 -5.674.505zm10 1.478a2.571 2.571 0 0 1 .049 3.48l-4.375 3.501-4.326-3.459a2.557 2.557 0 0 1 0-3.522 2.8 2.8 0 0 1 3.652 0 1 1 0 0 0 1.348 0 2.8 2.8 0 0 1 3.652 0z"/><path d="m9.029 2.756a4.828 4.828 0 0 0 -5.674.505 4.363 4.363 0 0 0 -1.355 3.239 4.381 4.381 0 0 0 1.4 3.281l5 4a1 1 0 0 0 1.249 0l5.051-4.042a4.364 4.364 0 0 0 1.359-3.239 4.364 4.364 0 0 0 -1.359-3.239 4.827 4.827 0 0 0 -5.671-.505zm4.376 5.463-4.376 3.5-4.329-3.458a2.363 2.363 0 0 1 -.7-1.761 2.363 2.363 0 0 1 .7-1.761 2.713 2.713 0 0 1 1.826-.677 2.71 2.71 0 0 1 1.826.677 1 1 0 0 0 1.348 0 2.8 2.8 0 0 1 3.652 0 2.364 2.364 0 0 1 .7 1.761 2.361 2.361 0 0 1 -.647 1.719z"/><path d="m20 15h2v2h-2z"/><path d="m23 18h2v2h-2z"/><path d="m42 39h2v2h-2z"/><path d="m4 16h2v2h-2z"/><path d="m55 26h2v2h-2z"/></svg>