<svg xmlns="http://www.w3.org/2000/svg" viewBox="0 0 64 80" x="0px" y="0px"><title>Artboard 28</title><g data-name="Layer 2"><path d="M38.43,50.8c.69-.52,1.41-1,2.15-1.58C47.45,44.22,56,38,56,25A24,24,0,0,0,8,25c0,13,8.55,19.22,15.42,24.22.74.54,1.46,1.06,2.14,1.57a14.57,14.57,0,0,1,1.49,1.32c-5.88.26-19,1.31-19,5.39C8,61.84,23.09,63,32,63s24-1.16,24-5.5c0-4.08-13.17-5.13-19-5.39A15.48,15.48,0,0,1,38.43,50.8ZM26.77,49.2c-.69-.52-1.42-1.05-2.17-1.6C18.09,42.87,10,37,10,25a22,22,0,0,1,44,0c0,12-8.09,17.87-14.6,22.6-.75.55-1.48,1.08-2.18,1.61A19.6,19.6,0,0,0,34,52.39a31.49,31.49,0,0,0-2,2.71,30,30,0,0,0-2-2.7A19.43,19.43,0,0,0,26.77,49.2ZM54,57.5c-.43,1.23-8.29,3.5-22,3.5s-21.65-2.29-22-3.48c.29-1,6.26-3.13,18.76-3.48l.14.18.27.34c.08.12.17.23.25.34l.23.32c.08.11.15.22.23.32l.2.29.19.29.17.26.16.24c0,.07.09.15.13.21l.13.21.09.14.1.18,0,0,.05.09a1,1,0,0,0,1.74,0l.13-.22,0-.08.11-.18a1.63,1.63,0,0,1,.11-.17,1.2,1.2,0,0,1,.13-.21l.16-.26.15-.23.22-.32.17-.25.26-.37c.07-.09.13-.18.2-.26s.19-.27.3-.41l.21-.28.17-.21C47.67,54.39,53.64,56.47,54,57.5Z"/><path d="M50,25A18,18,0,1,0,32,43,18,18,0,0,0,50,25ZM16,25A16,16,0,1,1,32,41,16,16,0,0,1,16,25Z"/><path d="M45,33V18a1,1,0,0,0-1-1H42a1,1,0,0,0-.9-1,20,20,0,0,0-9.1.94A20,20,0,0,0,22.9,16a1,1,0,0,0-.9,1H20a1,1,0,0,0-1,1V33a1,1,0,0,0,1,1H44A1,1,0,0,0,45,33ZM40,17.92v10c-.71,0-1.39-.05-2,0-.21,0-.4,0-.61,0-.45,0-.9.05-1.33.1l-.69.1c-.39.06-.78.13-1.15.21l-.69.17c-.16,0-.32.07-.48.12V18.7A17.36,17.36,0,0,1,40,17.92Zm-16,0a17.36,17.36,0,0,1,7,.78v9.9c-.19-.06-.39-.1-.58-.15L30,28.34c-.55-.12-1.11-.23-1.68-.31L28,28c-.5-.06-1-.09-1.52-.11l-.51,0h-.35c-.53,0-1.06,0-1.61.05v-10ZM43,32H21V19h1V29a1,1,0,0,0,.33.74,1,1,0,0,0,.77.26,17.63,17.63,0,0,1,8.53.93h0A1.28,1.28,0,0,0,32,31h0a1.28,1.28,0,0,0,.33-.06h0A17.63,17.63,0,0,1,40.9,30a1,1,0,0,0,.77-.26A1,1,0,0,0,42,29V19h1Z"/><path d="M26,23h3a1,1,0,0,0,0-2H26a1,1,0,0,0,0,2Z"/><path d="M26,26h3a1,1,0,0,0,0-2H26a1,1,0,0,0,0,2Z"/><path d="M35,23h3a1,1,0,0,0,0-2H35a1,1,0,0,0,0,2Z"/><path d="M35,26h3a1,1,0,0,0,0-2H35a1,1,0,0,0,0,2Z"/></g><text x="0" y="79" fill="#000000" font-size="5px" font-weight="bold" font-family="'Helvetica Neue', Helvetica, Arial-Unicode, Arial, Sans-serif">Created by endang firmansyah</text><text x="0" y="84" fill="#000000" font-size="5px" font-weight="bold" font-family="'Helvetica Neue', Helvetica, Arial-Unicode, Arial, Sans-serif">from the Noun Project</text></svg>