<svg xmlns="http://www.w3.org/2000/svg" data-name="Layer 1" viewBox="0 0 100 125" x="0px" y="0px"><title>icons_books_4</title><path d="M3,63.8a6.18,6.18,0,0,0,1.6.74L9.47,66,6.25,69.35A6.35,6.35,0,0,0,4.09,71.6l-.65,1.72a6.32,6.32,0,0,0,2.78,6.8,6.12,6.12,0,0,0,1.6.74L50.59,93.74l1.3.39.7-.73L83.28,61.6V49.21L82,48.83l-1.5-.43L95.21,33.13V20.73l-1.3-.37-38-10.81L54.4,9.11a7.57,7.57,0,0,0-7.52,2l-9.35,9.69a5.57,5.57,0,0,0-5,1.61L3,53A6.36,6.36,0,0,0,.83,55.28L.18,57A6.33,6.33,0,0,0,3,63.8ZM50.59,91.65,8.53,79l-.16,0a4.13,4.13,0,0,1-1.08-.5,4.39,4.39,0,0,1-2-3.69A4.34,4.34,0,0,1,7.43,71l0,0a4.55,4.55,0,0,1,.62-.29l.26-.09a4.14,4.14,0,0,1,.58-.14l.26,0a4.22,4.22,0,0,1,.65,0l.22,0a4.87,4.87,0,0,1,.78.15h.06l39.69,12ZM10,68.37l1.64-1.7,4.18,1.26-1.63,1.52-2.69-.81-.26-.06-.44-.1-.37-.05-.31,0ZM51.3,80.63,16.39,70.11,18,68.59l29.32,8.83,1.3.39.7-.73L61.14,64.85l1.38.42,1.3.39.7-.73,4.82-5v2L65.43,66Zm-26.56-38,.84.25h0L62.53,54v9.14L20.47,50.51l-.16,0a4.17,4.17,0,0,1-1.08-.5,4.4,4.4,0,0,1-2-3.69,4.34,4.34,0,0,1,2.14-3.76h0a4.45,4.45,0,0,1,.72-.34l.17-.06a4.21,4.21,0,0,1,1.59-.2H22a4.9,4.9,0,0,1,.83.15h0l.57.17h0Zm28,19.67h0L59,64.2l-9.65,10V65.86l3.41-3.53ZM18.15,51.65a6.13,6.13,0,0,0,1.6.74l30.84,9.29L48,64.32,13.57,53.93l3.23-3.44A6.32,6.32,0,0,0,18.15,51.65Zm63.13.79v8.36L52.59,90.52V82.17L69.35,64.8v7.79l4.92-12.16L77.62,63V56.23l.14-.15h0Zm-9.93,9.89V51.62l4.27-4.43V58.94L73.4,57.26Zm6.27-9v-2L78.9,50l1.5.43Zm15.59-21L77.62,48.49V42.24l-8.27,8.57v6.32l0,0-4.78,5V53.7l10.64-11,18-18.7ZM56,11.64,92.34,22,82.9,31.78,63.23,52.16,31.29,42.54l-4.15-1.25L38.11,30Zm-7.64.89A5.58,5.58,0,0,1,53.78,11l-5.16,5.31L25,40.64l-1.58-.48-.15,0L22.68,40l-.23,0L22,39.91h-.09ZM34,23.83a3.59,3.59,0,0,1,1.62-1l-17.37,18A6.36,6.36,0,0,0,16,43.14l-.65,1.73a6.25,6.25,0,0,0,.34,3.88l-4.27,4.54-3.21-1-.17,0-.54-.13-.33,0-.35,0H6.72ZM4.17,54.65l.06,0a4.55,4.55,0,0,1,.62-.29l.25-.09a4.14,4.14,0,0,1,.63-.15l.18,0a4.24,4.24,0,0,1,.69,0l.2,0a4.85,4.85,0,0,1,.81.15h0l39.69,12v9.14L5.28,62.66l-.16,0A4.17,4.17,0,0,1,4,62.12a4.4,4.4,0,0,1-2-3.69A4.34,4.34,0,0,1,4.17,54.65Z"/><path d="M62.57,47.35,84.7,24.43l-28-8L34.81,39ZM57.31,18.71l23.63,6.73L62,45.09,38.54,38Z"/><rect x="64.94" y="15.59" width="2" height="18.6" transform="translate(23.95 81.49) rotate(-74.11)"/><rect x="60.56" y="19.96" width="2" height="18.6" transform="translate(16.56 80.46) rotate(-74.11)"/><rect x="56.18" y="24.34" width="2" height="18.59" transform="translate(9.17 79.43) rotate(-74.11)"/><rect x="46.47" y="32.75" width="2" height="7.51" transform="translate(-0.62 72.19) rotate(-74.13)"/><text x="0" y="115" fill="#000000" font-size="5px" font-weight="bold" font-family="'Helvetica Neue', Helvetica, Arial-Unicode, Arial, Sans-serif">Created by Iconic</text><text x="0" y="120" fill="#000000" font-size="5px" font-weight="bold" font-family="'Helvetica Neue', Helvetica, Arial-Unicode, Arial, Sans-serif">from the Noun Project</text></svg>