<svg xmlns:dc="http://purl.org/dc/elements/1.1/" xmlns:cc="http://creativecommons.org/ns#" xmlns:rdf="http://www.w3.org/1999/02/22-rdf-syntax-ns#" xmlns:svg="http://www.w3.org/2000/svg" xmlns="http://www.w3.org/2000/svg" xmlns:sodipodi="http://sodipodi.sourceforge.net/DTD/sodipodi-0.dtd" xmlns:inkscape="http://www.inkscape.org/namespaces/inkscape" version="1.1" x="0px" y="0px" viewBox="0 0 100 125"><g transform="translate(0,-952.36218)"><path style="text-indent:0;text-transform:none;direction:ltr;block-progression:tb;baseline-shift:baseline;color:#000000;enable-background:accumulate;" d="m 15,963.36661 c -4.93411,0 -9,4.0659 -9,9 l 0,39.99999 c 0,4.9341 4.06589,9 9,9 l 5.6875,0 -1.71875,16.6875 a 3.0003,3.0003 0 0 0 5.09375,2.4375 l 19.1875,-19.125 7.75,0 0,2.0625 c 0,3.8056 3.17005,6.9375 6.96875,6.9375 l 14.625,0 10.3125,10.125 a 3.0003,3.0003 0 0 0 5.0625,-2.6563 l -1.3125,-7.4687 0.375,0 c 3.7987,0 6.96875,-3.1319 6.96875,-6.9375 l 0,-19.125 c 0,-3.8056 -3.17005,-6.93749 -6.96875,-6.93749 l -5.03125,0 0,-25 c 0,-4.9341 -4.06589,-9 -9,-9 l -58,0 z m 0,6 58,0 c 1.71391,0 3,1.2861 3,3 l 0,39.99999 c 0,1.7139 -1.28609,3 -3,3 l -31,0 a 3.0003,3.0003 0 0 0 -2.125,0.875 l -14.09375,14.0312 1.1875,-11.625 A 3.0003,3.0003 0 0 0 24,1015.3666 l -9,0 c -1.71391,0 -3,-1.2861 -3,-3 l 0,-39.99999 c 0,-1.7139 1.28609,-3 3,-3 z m 9,18 c -2.76142,0 -5,2.2386 -5,5 0,2.7614 2.23858,5 5,5 2.76142,0 5,-2.2386 5,-5 0,-2.7614 -2.23858,-5 -5,-5 z m 20.03125,0 c -2.76142,0 -5,2.2386 -5,5 0,2.7614 2.23858,5 5,5 2.76142,0 5,-2.2386 5,-5 0,-2.7614 -2.23858,-5 -5,-5 z m 19.96875,0 c -2.76142,0 -5,2.2386 -5,5 0,2.7614 2.23858,5 5,5 2.76142,0 5,-2.2386 5,-5 0,-2.7614 -2.23858,-5 -5,-5 z m 18,15.99999 5.03125,0 c 0.59372,0 0.96875,0.3876 0.96875,0.9375 l 0,19.125 c 0,0.55 -0.37503,0.9375 -0.96875,0.9375 l -3.96875,0 a 3.0003,3.0003 0 0 0 -2.96875,3.5 l 0.3125,1.7812 -4.5,-4.4375 a 3.0003,3.0003 0 0 0 -2.09375,-0.8437 l -15.84375,0 c -0.59374,0 -0.96875,-0.3875 -0.96875,-0.9375 l 0,-2.0625 16,0 c 4.93411,0 9,-4.0659 9,-9 l 0,-9 z" fill="#000000" fill-opacity="1" stroke="none" marker="none" visibility="visible" display="inline" overflow="visible"/></g><text x="0" y="115" fill="#000000" font-size="5px" font-weight="bold" font-family="'Helvetica Neue', Helvetica, Arial-Unicode, Arial, Sans-serif">Created by iconsphere</text><text x="0" y="120" fill="#000000" font-size="5px" font-weight="bold" font-family="'Helvetica Neue', Helvetica, Arial-Unicode, Arial, Sans-serif">from the Noun Project</text></svg>